<?xml version="1.0" standalone="no"?>
<!DOCTYPE svg PUBLIC "-//W3C//DTD SVG 20010904//EN"
 "http://www.w3.org/TR/2001/REC-SVG-20010904/DTD/svg10.dtd">
<svg version="1.0" xmlns="http://www.w3.org/2000/svg"
 width="1080.000000pt" height="1080.000000pt" viewBox="0 0 1080.000000 1080.000000"
 preserveAspectRatio="xMidYMid meet">
<metadata>
Created by potrace 1.10, written by Peter Selinger 2001-2011
</metadata>
<g transform="translate(0.000000,1080.000000) scale(0.100000,-0.100000)"
fill="#000000" stroke="none">
<path d="M4835 9398 c-42 -15 -83 -56 -104 -103 -19 -43 -21 -58 -51 -365 -11
-113 -27 -272 -35 -355 -8 -82 -21 -210 -28 -283 -9 -95 -17 -137 -29 -148 -9
-9 -58 -31 -110 -49 -51 -18 -115 -40 -142 -49 -27 -10 -108 -47 -179 -82 -72
-35 -139 -64 -148 -64 -10 0 -38 17 -62 38 -77 65 -299 246 -321 262 -11 8
-93 73 -181 145 -187 153 -273 221 -323 254 -45 30 -136 39 -172 17 -14 -8
-34 -20 -45 -25 -11 -5 -183 -173 -381 -373 -322 -323 -363 -368 -374 -407
-16 -59 -5 -140 23 -176 46 -58 131 -162 171 -209 22 -27 45 -55 50 -63 4 -9
16 -23 25 -33 9 -10 37 -44 63 -76 26 -33 82 -102 125 -155 43 -53 110 -136
148 -184 39 -48 80 -99 93 -112 12 -14 22 -34 22 -43 0 -10 -25 -68 -56 -129
-50 -101 -127 -294 -164 -409 -7 -24 -21 -47 -29 -51 -9 -5 -50 -11 -91 -14
-175 -13 -330 -28 -395 -37 -38 -5 -142 -16 -230 -25 -388 -36 -445 -48 -493
-99 -16 -17 -35 -47 -42 -66 -16 -46 -25 -765 -12 -973 l9 -148 40 -46 c35
-42 46 -48 114 -64 40 -10 153 -25 249 -34 96 -9 213 -20 260 -26 47 -5 153
-16 235 -23 266 -26 360 -38 367 -49 4 -7 28 -72 54 -147 43 -123 98 -251 160
-371 38 -73 52 -45 -157 -300 -57 -69 -117 -143 -134 -165 -16 -21 -82 -102
-145 -180 -242 -299 -252 -313 -262 -356 -11 -48 -4 -107 16 -147 21 -40 726
-738 768 -761 66 -35 176 -22 225 27 23 23 351 289 518 420 58 46 90 72 238
196 48 40 77 57 97 57 15 0 63 -17 106 -39 69 -34 132 -62 199 -91 36 -15 189
-67 231 -79 48 -13 64 -40 64 -109 0 -26 5 -76 10 -112 5 -36 14 -121 19 -190
6 -69 15 -163 21 -210 6 -47 19 -177 30 -289 23 -235 31 -269 77 -316 67 -69
56 -67 487 -72 215 -3 464 -1 554 5 l163 10 45 48 c24 27 49 65 54 84 8 30 24
165 44 375 3 28 10 93 15 145 6 52 18 165 26 250 37 370 39 380 79 380 47 0
364 127 457 182 81 49 100 43 241 -74 68 -57 143 -119 168 -138 25 -19 47 -37
50 -41 3 -3 39 -33 81 -65 79 -61 257 -205 320 -258 118 -100 132 -107 201
-113 43 -4 68 -1 98 12 26 12 162 141 407 386 316 316 370 375 385 416 19 52
16 98 -9 146 -15 31 -75 107 -238 306 -55 67 -120 147 -145 179 -25 32 -77 96
-115 142 -98 118 -200 252 -208 272 -3 9 15 59 45 120 49 99 138 321 138 343
0 5 6 22 14 37 8 15 17 40 21 57 8 36 16 39 137 51 51 5 156 16 233 24 77 8
174 17 215 21 41 3 131 12 200 20 69 8 170 20 225 25 55 6 118 16 140 23 45
13 122 86 133 127 4 14 7 259 7 545 0 512 0 521 -22 565 -28 60 -68 95 -123
108 -57 13 -189 28 -550 63 -328 31 -570 58 -580 64 -4 3 -10 15 -13 27 -3 13
-20 61 -37 108 -18 47 -41 109 -51 139 -11 30 -46 110 -79 178 l-60 124 16 32
c16 31 32 51 154 198 30 36 65 79 77 95 12 16 66 83 120 150 54 66 107 133
118 148 11 16 33 43 48 60 51 56 174 211 186 233 16 31 14 117 -5 161 -21 51
-719 751 -778 781 -51 25 -115 27 -161 5 -18 -8 -61 -38 -96 -67 -35 -29 -89
-71 -120 -94 -46 -35 -116 -93 -295 -241 -11 -9 -36 -28 -54 -42 -18 -14 -83
-66 -144 -115 -171 -139 -193 -155 -209 -155 -22 0 -67 21 -67 32 0 4 -7 8
-17 8 -9 0 -55 20 -102 44 -47 24 -129 58 -181 76 -52 17 -109 38 -127 46 -17
8 -38 14 -45 14 -26 0 -45 34 -52 90 -3 30 -12 114 -21 185 -8 72 -19 191 -25
265 -6 74 -15 158 -20 185 -5 28 -12 93 -15 145 -9 130 -30 268 -49 311 -19
45 -65 85 -114 99 -51 14 -1066 12 -1107 -2z m835 -2673 c220 -47 414 -137
577 -268 94 -74 242 -233 299 -320 73 -111 143 -258 164 -347 4 -19 13 -51 19
-70 44 -138 55 -441 22 -601 -74 -357 -229 -606 -525 -846 -53 -43 -124 -86
-221 -133 -79 -39 -151 -70 -160 -70 -9 0 -26 -5 -37 -11 -11 -6 -64 -21 -117
-32 -132 -30 -468 -31 -576 -3 -194 50 -262 75 -395 148 -136 73 -332 241
-396 338 -15 22 -30 40 -34 40 -10 0 -82 114 -122 195 -54 106 -89 202 -112
300 -56 243 -46 507 26 750 100 332 373 651 693 809 152 75 275 113 440 136
90 13 368 4 455 -15z"/>
</g>
</svg>
